<?xml version="1.0" encoding="UTF-8" standalone="no"?><!DOCTYPE svg PUBLIC "-//W3C//DTD SVG 1.1//EN" "http://www.w3.org/Graphics/SVG/1.1/DTD/svg11.dtd"><svg width="100%" height="100%" viewBox="0 0 62 14" version="1.1" xmlns="http://www.w3.org/2000/svg" xmlns:xlink="http://www.w3.org/1999/xlink" xml:space="preserve" xmlns:serif="http://www.serif.com/" style="fill-rule:evenodd;clip-rule:evenodd;stroke-linejoin:round;stroke-miterlimit:2;"><g><path d="M3.495,1.067l57.854,-0.498c0,0 -0.98,10.972 -6.761,10.995c-5.781,0.024 -6.544,-7.948 -6.544,-7.948c0,0 -0.982,10.399 -9.819,9.589c-8.837,-0.811 -9.149,-8.999 -9.149,-8.999l-24.291,-1.423l-4.323,4.153l3.033,-5.869Z"/><path d="M39.322,2.48l-4.795,8.222c1.197,0.78 2.287,1.121 3.268,1.024l5.331,-9.195l-3.804,-0.051Z" style="fill:#fff;"/><path d="M54.379,2.34l-2.712,6.399c0.66,1.041 1.442,1.533 2.318,1.602l3.412,-8.08l-3.018,0.079Z" style="fill:#fff;"/></g></svg>