<?xml version="1.0" encoding="UTF-8" standalone="no"?><!DOCTYPE svg PUBLIC "-//W3C//DTD SVG 1.1//EN" "http://www.w3.org/Graphics/SVG/1.1/DTD/svg11.dtd"><svg width="100%" height="100%" viewBox="0 0 121 69" version="1.1" xmlns="http://www.w3.org/2000/svg" xmlns:xlink="http://www.w3.org/1999/xlink" xml:space="preserve" xmlns:serif="http://www.serif.com/" style="fill-rule:evenodd;clip-rule:evenodd;stroke-linejoin:round;stroke-miterlimit:2;"><path d="M114.046,32.078c1.255,1.162 2.211,2.829 2.647,4.849c0.671,3.11 -0.05,6.316 -1.691,8.613c0.355,0.863 0.564,1.832 0.596,2.879c0.076,2.489 -0.868,4.914 -2.428,6.745c2.035,3.188 1.973,7.343 -0.451,10.3c-1.484,1.81 -3.582,2.841 -5.795,3.053l0,0.055l-90.196,0c-9.209,0 -16.685,-7.477 -16.685,-16.686c0,-9.209 7.476,-16.685 16.685,-16.685c1.261,0 2.489,0.14 3.672,0.406c0.281,-10.268 8.706,-18.518 19.042,-18.518c2.166,0 4.248,0.362 6.189,1.03c3.017,-10.143 12.417,-17.547 23.532,-17.547c3.618,0 7.055,0.785 10.149,2.193c3.094,-1.408 6.531,-2.193 10.149,-2.193c10.67,0 19.758,6.822 23.138,16.34c2.638,0.996 4.369,2.99 4.12,5.053c-0.011,0.097 -0.027,0.193 -0.047,0.287c0,1.782 -0.911,3.871 -2.6,5.592c-2.296,-1.358 -5.626,-2.184 -9.253,-2.342l-0.333,2.466c4.508,-0.477 7.167,0.185 9.237,0.885c-0.123,0.809 -0.286,1.604 -0.487,2.384c-2.375,-0.636 -4.765,-0.87 -7.179,-0.415c-0.583,-1.011 -1.351,-1.799 -2.445,-2.278l-1.043,-0.331l0.88,1.355c1.107,1.324 1.725,2.869 2.244,4.649c0.613,2.109 1.105,4.947 2.205,7.357c0.077,0.168 0.195,0.304 0.338,0.39c0.895,0.532 1.579,1.461 2.166,2.153c0.461,0.543 0.691,1.087 0.651,1.772c-0.081,1.403 -0.954,1.766 -2.352,1.836c-2.936,0.149 -3.899,0.374 -5.574,-0.682c-0.081,-0.051 -0.168,-0.084 -0.257,-0.099c-0.864,-0.142 -2.642,-0.334 -3.179,-0.69c-0.29,-0.192 -0.495,-0.431 -0.448,-0.822c0.078,-0.656 0.162,-1.076 0.336,-1.365c0.148,-0.248 0.366,-0.366 0.652,-0.513c0.297,-0.153 1.201,-0.597 1.427,-0.689c0.128,-0.053 2.36,-0.79 2.36,-0.79l-0.95,-0.627c-0.419,-0.265 -1.192,-0.599 -1.686,-0.443c-0.315,0.1 -1.325,0.597 -1.765,0.823c-0.593,0.305 -0.998,0.629 -1.306,1.142c-0.282,0.471 -0.486,1.128 -0.614,2.194c-0.123,1.022 0.185,1.796 0.801,2.386c0.65,0.62 2.749,1.007 4.023,1.229c1.841,1.157 2.946,0.989 6.246,0.821c2.232,-0.113 3.715,-1.34 3.845,-3.581c0.057,-0.996 -0.231,-1.912 -0.785,-2.74c-0.655,-0.978 -1.482,-2.127 -2.672,-2.86c-0.973,-2.233 -1.421,-4.873 -1.988,-6.821c-0.179,-0.616 -0.374,-1.198 -0.6,-1.737c0.745,-0.069 1.49,-0.106 2.234,-0.116c-0.136,0.239 -0.213,0.512 -0.213,0.802c0,0.937 0.806,1.698 1.798,1.698c0.993,0 1.799,-0.761 1.799,-1.698c0,-0.242 -0.054,-0.473 -0.151,-0.682c0.67,0.055 1.341,0.127 2.012,0.213Zm-8.288,20.823c0.822,-0.265 1.612,-0.132 2.392,0.192c0.526,0.218 1.047,0.536 1.572,0.811c0.359,0.187 0.711,0.364 1.088,0.387l1.809,0.108l-1.061,1.318c-2.192,2.72 -4.005,3.971 -5.99,4.175c-1.941,0.2 -4.154,-0.628 -7.256,-2.39l-1.479,-0.839l1.555,-0.721c1.914,-0.887 3.256,-2.233 4.45,-2.853c1.009,-0.524 1.944,-0.672 2.92,-0.188Zm-7.74,3.748c2.391,-0.035 4.863,0.006 6.312,-0.9c0.686,0.288 1.436,0.385 2.445,-0.303c1.302,0.323 3.068,-0.089 4.914,-0.631c-4.425,1.987 -9.009,2.313 -13.671,1.834Zm-6.915,-24.701c-1.806,0.133 -3.613,0.369 -5.419,0.656c4.061,-1.534 8.145,-2.443 12.297,-1.627l0,1.065c-1.039,-0.122 -2.078,-0.187 -3.117,-0.207c0.185,0.295 0.291,0.637 0.291,1.002c0,1.096 -0.958,1.987 -2.139,1.987c-1.181,0 -2.139,-0.891 -2.139,-1.987c0,-0.32 0.081,-0.622 0.226,-0.889Zm7.377,-3.776l0.513,-3.007c-6.916,0.295 -11.026,2.325 -14.121,4.984c5.021,-1.533 9.863,-2.743 13.608,-1.977Z" style="fill:#fff;"/></svg>