<?xml version="1.0" encoding="UTF-8" standalone="no"?><!DOCTYPE svg PUBLIC "-//W3C//DTD SVG 1.1//EN" "http://www.w3.org/Graphics/SVG/1.1/DTD/svg11.dtd"><svg width="100%" height="100%" viewBox="0 0 1946 1288" version="1.1" xmlns="http://www.w3.org/2000/svg" xmlns:xlink="http://www.w3.org/1999/xlink" xml:space="preserve" xmlns:serif="http://www.serif.com/" style="fill-rule:evenodd;clip-rule:evenodd;stroke-linecap:round;stroke-linejoin:round;stroke-miterlimit:5;"><g><path d="M1444.87,522.903c-116.494,-34.338 -245.06,-36.004 -387.545,0c-44.995,165.535 -57.559,333.266 -59.943,501.686l387.544,0c5.096,-176.553 26.934,-342.618 59.944,-501.686Z" style="fill:#d09ff7;stroke:#7e579d;stroke-width:18.33px;"/><ellipse cx="1627.91" cy="748.941" rx="38.661" ry="57.911" style="fill:#e3d2c9;stroke:#8b7a71;stroke-width:18.33px;"/><path d="M962.841,776.716c16.805,-17.079 19.108,-42.104 5.14,-55.849c-13.969,-13.745 -38.953,-11.037 -55.758,6.041l-84.39,85.764c19.206,5.676 38.6,18.853 52.894,47.494l82.114,-83.45Z" style="fill:#bf784a;stroke:#71462b;stroke-width:18.43px;stroke-miterlimit:1.5;"/><path d="M1044,704.274c16.806,-17.079 16.959,-44.219 0.343,-60.569c-16.616,-16.349 -43.75,-15.757 -60.555,1.322l-84.39,85.763c21.594,8.025 44.104,24.268 62.489,56.935l82.113,-83.451Z" style="fill:#e2deb8;stroke:#817d59;stroke-width:18.43px;stroke-miterlimit:1.5;"/><path d="M1286.81,636.328c-4.062,-39.494 -39.423,-68.26 -78.916,-64.198l-143.115,14.719c-39.493,4.062 -68.259,39.424 -64.197,78.917l23.499,228.487c4.062,39.494 39.424,68.26 78.917,64.198l143.114,-14.719c39.494,-4.062 68.26,-39.424 64.198,-78.917l-23.5,-228.487Z" style="fill:#e2deb8;stroke:#817d59;stroke-width:18.33px;"/><path d="M840.339,453.209c-14.592,-21.471 -24.936,-45.768 -29.908,-72.233c-22.129,-117.777 70.452,-234.167 206.613,-259.75c136.161,-25.582 256.974,46.181 289.524,161.514c11.666,41.338 17.904,90.948 11.236,150.13c-9.017,80.022 -96.894,163.684 -233.055,189.266c-136.161,25.583 -257.952,-13.497 -271.802,-87.215c-5.137,-27.342 5.291,-55.633 27.392,-81.712Z" style="fill:#bf784a;stroke:#71462b;stroke-width:18.33px;"/><rect x="1490.66" y="667.312" width="132.796" height="170.943" style="fill:#e3d2c9;stroke:#8b7a71;stroke-width:18.33px;"/><g><path d="M1293.57,324.857c0,0 60.427,-67.413 71.585,22.218c11.158,89.63 -58.72,50.996 -58.72,50.996c0.388,-26.81 -5.171,-50.561 -12.865,-73.214Z" style="fill:#bf784a;"/><path d="M1293.57,324.857c0,0 60.427,-67.413 71.585,22.218c11.158,89.63 -58.72,50.996 -58.72,50.996" style="fill:none;stroke:#71462b;stroke-width:18.43px;stroke-miterlimit:1.5;"/></g><path d="M1336.83,334.269c39.138,-45.876 6.026,-121.166 -13.485,-166.291c9.379,-3.365 23.935,-2.245 34.212,3.825c-16.955,-46.216 -42.965,-67.451 -78.41,-62.66c-0.796,-39.888 -31.983,-66.966 -92.34,-81.748c11.361,12.565 20.442,26.45 19.11,46.374c-46.426,-58.279 -148.414,-82.486 -257.052,-44.386c23.133,-4.661 47.879,8.991 58.955,16.163c-141.305,8.889 -232.577,73.82 -264.39,124.355c13.763,-5.584 44.684,-9.778 49.848,-1.599c-64.702,46.222 -17.725,173.635 -73.985,210.796c12.636,7.087 41.191,-12.394 64.998,-28.59c1.608,33.388 13.763,69.753 43.097,78.277c1.375,-46.062 -42.916,-77.05 7.119,-140.92c8.968,5.639 12.953,25.284 -5.364,54.148c52.8,1.421 79.579,-39.153 88.32,-92.053c13.748,45.923 52.773,61.42 101.5,65.241c-37.161,-32.286 -53.938,-65.274 -51.935,-98.908c31.901,36.293 68.466,77.05 126.021,82.566c-22.912,-19.35 -32.064,-37.908 -30.877,-55.871c43.565,40.646 94.094,66.793 151.752,78.099c-23.513,-30.772 -32.777,-44.479 -25.715,-77.044c43.459,57.643 84.577,98.228 91.373,172.915c5.22,-8.778 20.525,-50.257 20.954,-59.82c1.194,-26.629 25.415,-35.066 36.294,-22.869Z" style="fill:#35131b;stroke:#261015;stroke-width:18.43px;stroke-miterlimit:1.5;"/><path d="M1305.36,312.499c-0,0 48.64,-55.055 59.798,34.576c11.158,89.63 -58.72,50.996 -58.72,50.996c0.388,-26.81 7.549,-62.598 -1.078,-85.572Z" style="fill:#bf784a;"/><path d="M985.329,375.061c-6.183,-25.582 -31.449,-35.359 -54.785,-33.704c-31.591,2.241 -62.084,9.834 -92.228,26.904c-17.701,10.023 -23.573,18.509 -26.016,44.045c-1.148,12.004 2.266,37.126 5.739,48.548c5.753,18.921 23.646,25.773 45.632,26.908c37.83,1.953 70.402,-0.703 104.708,-12.121c21.324,-7.098 22.793,-25.625 23.678,-47.81c0.712,-17.86 -1.688,-31.913 -6.728,-52.77Z" style="fill:#e2e0d9;stroke:#000;stroke-width:17.49px;stroke-miterlimit:1.5;"/><path d="M997.405,373.628c-0.107,-25.86 20.202,-39.914 42.606,-45.597c33.746,-8.561 66.633,-8.582 105.306,-3.486c23.922,3.152 49.044,12.777 55.397,41.094c2.826,12.597 3.762,37.062 3.147,49.776c-1.02,21.059 -16.879,32.258 -39.561,40.145c-39.783,13.832 -97.402,20.728 -128.766,12.682c-18.434,-4.728 -25.4,-10.349 -29.64,-27.804c-4.407,-18.142 -8.397,-44.35 -8.489,-66.81Z" style="fill:#e2e0d9;stroke:#000;stroke-width:17.72px;stroke-miterlimit:1.5;"/><path d="M1297.5,314.198c-0,-0 56.494,-56.754 67.652,32.877c11.158,89.63 -58.72,50.996 -58.72,50.996" style="fill:none;stroke:#71462b;stroke-width:18.43px;stroke-miterlimit:1.5;"/><path d="M1287.67,397.195c5.22,-8.778 11.148,-30.64 12.866,-40.057c3.883,-21.288 -1.339,-37.709 -8.172,-57.068" style="fill:none;stroke:#261015;stroke-width:18.43px;stroke-miterlimit:1.5;"/><path d="M1084.4,365.133c20.727,-2.329 40.331,20.491 43.751,50.928c3.419,30.436 -10.633,57.038 -31.36,59.366c-20.727,2.329 -40.332,-20.491 -43.751,-50.928c-3.419,-30.436 10.632,-57.037 31.36,-59.366Z"/><path d="M892.66,393.359c18.243,-2.05 35.533,18.356 38.587,45.539c3.054,27.183 -9.278,50.916 -27.52,52.966c-18.243,2.049 -35.533,-18.356 -38.587,-45.539c-3.054,-27.183 9.277,-50.917 27.52,-52.966Z"/><path d="M1294.3,310.893l-90.259,40.167" style="fill:none;stroke:#000;stroke-width:26.8px;stroke-miterlimit:1.5;"/><path d="M965.054,529.116c16.401,19.793 49.547,46.447 72.874,48.206c24.108,1.818 33.426,-32.668 36.143,-58.924" style="fill:none;stroke:#392126;stroke-width:26.67px;stroke-linecap:square;stroke-linejoin:bevel;"/><path d="M1027.83,283.259c38.063,-36.376 110.814,-32.709 152.936,11.169" style="fill:none;stroke:#000;stroke-width:40px;"/><path d="M827.555,333.404c22.076,-42.077 74.21,-55.356 119.908,-36.897" style="fill:none;stroke:#000;stroke-width:40px;"/><path d="M1294.13,601.128c-17.379,-20.109 -47.815,-22.325 -67.924,-4.946c-20.108,17.38 -22.324,47.815 -4.945,67.924l87.272,100.979c28.252,-9.449 51.937,-30.879 70.515,-65.702l-84.918,-98.255Z" style="fill:#e2deb8;stroke:#817d59;stroke-width:18.43px;stroke-miterlimit:1.5;"/><g><path d="M839.73,440.991l-698.061,-0l89.861,381.15l698.061,0l-89.861,-381.15Z" style="fill:#c9d9e3;stroke:#597586;stroke-width:18.33px;"/><path d="M491.92,615.79c-1.558,-2.811 -2.701,-5.761 -3.417,-8.798c-4.716,-20.003 10.892,-36.244 34.832,-36.244c3.647,0 7.277,0.377 10.827,1.088l-42.242,43.954Z" style="fill:#fff;stroke:#597586;stroke-width:18.33px;"/><path d="M547.552,592.416c16.043,3.201 31.023,10.883 42.409,21.275c-15.151,4.35 -23.879,17.034 -20.354,31.987c3.526,14.954 18.235,27.638 35.437,31.988c-8.661,13.878 -26.012,22.923 -48.003,22.923c-30.765,-0 -60.794,-17.702 -73.487,-41.582l63.998,-66.591Z" style="fill:#fff;stroke:#597586;stroke-width:18.33px;"/></g><rect x="11.838" y="840.192" width="1391.4" height="436.426" style="fill:#a74f46;stroke:#67322b;stroke-width:18.33px;"/><path d="M929.591,822.141l373.67,0" style="fill:none;stroke:#597586;stroke-width:18.33px;"/><path d="M1383.83,712.382c17.593,16.702 18.207,46.929 18.326,63.064c-52.366,32.039 -148.535,35.623 -279.73,34.154l-131.495,2.272c15.63,-27.183 25.952,-40.793 74.848,-62.7c41.52,-6.614 49.691,11.794 88.149,10.376c105.323,-35.612 176.889,-51.121 229.902,-47.166Z" style="fill:#bf784a;stroke:#71462b;stroke-width:18.33px;"/><g><path d="M1536.78,727.879c0.098,0.566 0.032,1.173 -0.198,1.822c-0.23,0.649 -0.436,1.011 -0.619,1.087c-0.183,0.076 -0.51,0.173 -0.979,0.292l-3.13,0.615c-0.332,2.033 -0.572,4.102 -0.72,6.208c-0.148,2.105 -0.295,3.441 -0.441,4.01l2.748,-0.695c1.339,0.37 2.127,1.234 2.364,2.592c0.237,1.358 -0.301,2.351 -1.614,2.978l-3.452,0.873c0.022,0.408 0.115,1.507 0.28,3.297c0.165,1.789 0.163,3.326 -0.006,4.609c-0.168,1.283 -0.793,2.062 -1.873,2.335c-1.081,0.273 -1.871,-0.324 -2.372,-1.793l-0.424,-7.07l-6.423,1.979l0.107,2.72c0.058,2.585 -0.06,4.298 -0.355,5.141c-0.314,0.729 -0.765,1.168 -1.352,1.316c-0.587,0.149 -1.139,0.008 -1.655,-0.423c-0.517,-0.43 -0.872,-1.064 -1.067,-1.901l-0.276,-4.538c-0.072,-0.691 -0.112,-1.064 -0.122,-1.121l-1.198,0.303c-0.724,0.065 -1.345,-0.118 -1.861,-0.548c-0.516,-0.431 -0.834,-0.986 -0.952,-1.665c-0.119,-0.679 0.022,-1.349 0.421,-2.011c0.4,-0.663 0.952,-1.083 1.657,-1.261l2.254,-0.571c0.071,-2.971 0.453,-6.406 1.147,-10.303c-2.423,0.731 -3.907,1.151 -4.452,1.259c-0.545,0.109 -1.085,-0.036 -1.62,-0.432c-0.535,-0.396 -0.867,-0.962 -0.995,-1.698c-0.227,-1.301 0.224,-2.301 1.353,-3c1.128,-0.699 2.612,-1.4 4.452,-2.101l2.195,-0.91c0.181,-0.932 0.217,-2.27 0.109,-4.015c-0.191,-3.91 0.465,-6.055 1.968,-6.435c1.597,-0.404 2.583,0.469 2.958,2.619c0.197,1.132 0.175,3.116 -0.066,5.954c0.94,-0.238 2.651,-0.553 5.132,-0.944c0.07,-0.727 0.094,-1.855 0.072,-3.386c-0.021,-1.53 0.008,-2.63 0.087,-3.3c0.144,-1.986 0.757,-3.116 1.837,-3.389c1.409,-0.356 2.316,0.625 2.72,2.945c0.227,1.301 0.193,3.496 -0.103,6.583c0.47,-0.118 1.35,-0.134 2.64,-0.047c0.999,0.102 1.607,0.775 1.824,2.02Zm-15.201,6.06c-0.228,0.944 -0.735,4.646 -1.522,11.107c0.517,-0.13 2.597,-0.716 6.241,-1.755c0.063,-2.734 0.208,-6.404 0.435,-11.01c-2.207,0.558 -3.926,1.111 -5.154,1.658Z" style="fill:#8b7a71;fill-rule:nonzero;"/><path d="M1564.46,744.449c0.483,2.772 -0.52,4.473 -3.01,5.103c-0.516,0.131 -1.021,-0.022 -1.514,-0.459c-0.493,-0.436 -0.838,-1.22 -1.035,-2.352l-3.97,-21.504c-1.242,-7.129 -2.341,-13.852 -3.295,-20.168c-1.301,2.102 -2.51,4.446 -3.629,7.033c-1.118,2.586 -1.883,4.316 -2.295,5.188c-0.412,0.872 -0.991,1.772 -1.737,2.699c-0.745,0.927 -1.494,1.486 -2.246,1.676c-0.751,0.19 -1.404,0.03 -1.959,-0.479c-0.555,-0.51 -0.911,-1.217 -1.069,-2.123c-0.158,-0.905 0.18,-2.275 1.012,-4.11c0.833,-1.835 3.988,-8.142 9.465,-18.921c0.873,-1.461 2.132,-2.4 3.776,-2.816c0.799,-0.202 1.505,-0.085 2.121,0.35c0.615,0.435 0.987,1.02 1.115,1.756l3.487,22.955l4.783,26.172Z" style="fill:#8b7a71;fill-rule:nonzero;"/><path d="M1496.16,786.873c-0.582,-3.339 -0.059,-6.247 1.569,-8.727c1.627,-2.479 3.744,-4.048 6.351,-4.708c2.607,-0.659 5.207,-0.726 7.8,-0.201c2.592,0.526 4.052,1.723 4.377,3.59c0.168,0.962 -0.004,1.803 -0.516,2.523c-0.512,0.72 -0.992,1.137 -1.438,1.25c-0.446,0.113 -0.801,0.187 -1.064,0.225c-0.263,0.037 -1.294,-0.249 -3.092,-0.858c-1.798,-0.608 -3.378,-0.74 -4.74,-0.396c-1.362,0.345 -2.453,1.049 -3.273,2.113c-0.82,1.064 -1.092,2.388 -0.816,3.973c0.276,1.584 1.045,2.689 2.307,3.315c1.261,0.626 3.335,0.914 6.219,0.864c2.885,-0.051 5.171,0.331 6.857,1.145c1.687,0.814 2.812,2.834 3.374,6.059c0.818,4.696 0.376,8.278 -1.327,10.747c-1.703,2.469 -4.01,4.072 -6.922,4.809c-2.912,0.736 -5.474,0.882 -7.685,0.437c-2.211,-0.445 -3.484,-1.629 -3.819,-3.553c-0.385,-2.207 0.339,-3.542 2.171,-4.005c0.469,-0.119 1.572,0.016 3.307,0.404c1.735,0.388 3.389,0.383 4.963,-0.015c1.573,-0.398 2.665,-1.309 3.275,-2.734c0.61,-1.424 0.777,-2.928 0.5,-4.513c-0.276,-1.584 -1.016,-2.593 -2.219,-3.027c-1.204,-0.434 -2.949,-0.598 -5.236,-0.492c-2.286,0.105 -3.99,0.034 -5.112,-0.213c-3.055,-0.646 -4.992,-3.316 -5.811,-8.012Z" style="fill:#8b7a71;fill-rule:nonzero;"/><path d="M1539.86,764.563c2.067,-0.523 3.47,1.338 4.21,5.581c0.079,0.453 0.163,0.934 0.251,1.443l0.895,5.977c0.279,1.879 0.576,3.724 0.891,5.534l4.401,18.914c0.246,1.414 -0.828,2.425 -3.224,3.03c-0.14,0.036 -0.481,0.122 -1.021,0.259c-0.54,0.137 -0.96,-0.023 -1.261,-0.479c-0.3,-0.456 -0.432,-1.072 -0.396,-1.849c0.037,-0.777 -0.165,-1.583 -0.605,-2.417c-1.677,3.319 -4.301,5.43 -7.87,6.333c-6.623,1.675 -11.01,-3.654 -13.16,-15.989c-1.193,-6.846 -1.027,-12.294 0.498,-16.342c1.526,-4.049 4.285,-6.578 8.277,-7.588c1.879,-0.475 3.827,-0.554 5.844,-0.238c0.433,-1.172 1.19,-1.896 2.27,-2.169Zm-5.981,9.577c-2.677,0.677 -4.511,2.116 -5.5,4.316c-0.99,2.199 -1.051,5.789 -0.183,10.768c1.46,8.374 4.068,12.086 7.826,11.135c0.987,-0.249 1.985,-1.063 2.995,-2.441c1.011,-1.378 1.632,-2.806 1.865,-4.282c0.36,-3.281 0.224,-6.733 -0.407,-10.354c-0.631,-3.621 -1.454,-6.16 -2.468,-7.616c-1.014,-1.457 -2.39,-1.966 -4.128,-1.526Z" style="fill:#8b7a71;fill-rule:nonzero;"/><path d="M1579.22,792.002c0.464,2.66 -0.315,4.245 -2.334,4.756c-0.846,0.214 -2.433,-1.999 -4.762,-6.638c-2.329,-4.639 -4.951,-8.008 -7.867,-10.106c-0.166,0.456 -0.969,1.826 -2.41,4.11c-1.441,2.285 -2.291,3.666 -2.551,4.146l1.479,8.487c0.054,0.872 0.05,1.553 -0.012,2.041c-0.062,0.488 -0.305,0.993 -0.729,1.513c-0.424,0.521 -1.059,0.889 -1.904,1.103c-1.269,0.32 -2.065,-0.453 -2.391,-2.32c-0.917,-5.262 -2.528,-13.376 -4.832,-24.343c-2.304,-10.966 -4.22,-20.835 -5.749,-29.605c-0.188,-1.075 0.028,-2.015 0.648,-2.822c0.62,-0.806 1.329,-1.311 2.127,-1.513c1.08,-0.273 1.881,0.381 2.402,1.963l2.619,15.022c0.315,1.81 0.575,3.162 0.78,4.056c0.205,0.893 0.489,2.239 0.851,4.038c0.745,3.71 1.644,7.884 2.698,12.521c1.145,-1.589 2.552,-3.998 4.221,-7.226c1.668,-3.229 2.875,-5.941 3.62,-8.138c1.129,-3.653 2.398,-5.658 3.807,-6.014c0.376,-0.095 0.771,-0.077 1.186,0.054c1.105,0.43 1.736,1.097 1.894,2.002c0.158,0.906 0.036,2.177 -0.365,3.814c-1.079,3.936 -2.471,7.626 -4.176,11.07c2.607,2.295 5.426,5.805 8.457,10.533c1.86,3.074 2.958,5.573 3.293,7.496Z" style="fill:#8b7a71;fill-rule:nonzero;"/><path d="M1579.27,739.973c0.845,-0.214 1.728,0.065 2.647,0.837c0.919,0.772 1.47,1.681 1.652,2.728c0.183,1.047 -0.043,2.211 -0.678,3.494c-0.634,1.283 -1.398,2.038 -2.29,2.263c-0.893,0.226 -1.782,-0.022 -2.668,-0.743c-0.886,-0.721 -1.452,-1.789 -1.698,-3.203c-0.474,-2.716 0.491,-4.496 2.894,-5.34c0.047,-0.012 0.094,-0.024 0.141,-0.036Zm10.712,43.724l1.106,5.923c0.187,1.075 -0.01,2.056 -0.591,2.941c-0.581,0.886 -1.271,1.429 -2.07,1.631c-1.174,0.297 -1.908,-0.256 -2.201,-1.658c-3.758,-17.895 -5.804,-27.804 -6.139,-29.728c-0.335,-1.924 -0.674,-4.29 -1.017,-7.098c-0.083,-1.042 0.368,-1.688 1.355,-1.937c2.489,-0.63 4.11,0.23 4.863,2.58c0.358,1.209 0.601,2.181 0.729,2.917l0.651,5.418l3.314,19.011Z" style="fill:#8b7a71;fill-rule:nonzero;"/><path d="M1589.9,733.387c-0.395,-2.263 0.582,-3.692 2.931,-4.286c1.08,-0.273 1.852,0.359 2.316,1.896l2.22,12.73c0.414,2.377 0.852,4.747 1.313,7.112c0.88,-0.578 2.048,-1.05 3.504,-1.419c4.557,-1.152 8.4,-0.204 11.53,2.844c3.131,3.048 5.18,7.344 6.146,12.889c0.967,5.545 0.315,10.598 -1.955,15.16c-2.27,4.562 -5.706,7.425 -10.309,8.589c-4.603,1.165 -7.179,0.177 -7.726,-2.963c-0.547,-3.141 -2.067,-11.086 -4.56,-23.836c-2.492,-12.75 -4.296,-22.322 -5.41,-28.716Zm18.996,23.729c-1.967,-1.157 -3.89,-1.497 -5.769,-1.022c-1.033,0.261 -2.051,0.755 -3.052,1.481c1.09,4.568 2.667,12.765 4.728,24.59c0.858,0.138 1.709,0.1 2.555,-0.114c1.832,-0.464 3.52,-1.747 5.066,-3.852c2.33,-2.952 3.088,-6.762 2.274,-11.43c-0.813,-4.668 -2.748,-7.886 -5.802,-9.653Z" style="fill:#8b7a71;fill-rule:nonzero;"/></g><rect x="1403.24" y="840.192" width="531.476" height="436.426" style="fill:#752820;stroke:#451712;stroke-width:18.33px;"/></g></svg>